# xmcd CD database file
#
# Track frame offsets:
#	150
#	29301
#	56444
#	87684
#	108944
#	128293
#	160217
#	191633
#	210963
#	236400
#	258641
#	283133
#	301456
#	322763
#
# Disc length: 4579 seconds
#
# Revision: 2
# Processed by: cddbd v1.4PL0 Copyright (c) Steve Scherf et al.
# Submitted via: CDex 1.40Beta8
#
DISCID=b811e10e
DTITLE=Various Artist - Smooth Jazz Cafe 3
DYEAR=1900
DGENRE=
TTITLE0=This is How Men Cry-Charlie Parker Loves Me (Marc Jordan)
TTITLE1=Los Feliz (Jimmy Haslip)
TTITLE2=Conviction of the Heart (Kenny Loggins)
TTITLE3=Just Another Day (Peter White and Basia)
TTITLE4=The Slough (Patrick Leonard)
TTITLE5=Bewitched (Ella Fitzgerald)
TTITLE6=Children of Sanchez (Chuck Mangione)
TTITLE7=Soulful Strut (Grover Washington Jr)
TTITLE8=Poranne ³zy (Anna Maria Jopek)
TTITLE9=Night Hawk's Dream (Keiko Matsui)
TTITLE10=Love is still Enough (Sovory)
TTITLE11=Rose Rouge (St. Germain)
TTITLE12=Have you Met Chet_ (Till Bronner)
TTITLE13=Sunland (Marc Antonine)
EXTD=
EXTT0=
EXTT1=
EXTT2=
EXTT3=
EXTT4=
EXTT5=
EXTT6=
EXTT7=
EXTT8=
EXTT9=
EXTT10=
EXTT11=
EXTT12=
EXTT13=
PLAYORDER=
